inDegrees=no
num_controls=7
num_derivatives=13
num_iterations=91
num_multipliers=7
num_parameters=0
num_slacks=7
num_states=26
objective=5.588515
objective_accelerations=0.735281
objective_balance=0.047387
objective_effort=0.689503
objective_height=4.062166
objective_ligament=0.054177
solver_duration=935.011712
status=Solve_Succeeded
success=true
DataType=double
version=3
OpenSimVersion=4.4-2022-07-23-0e9fedc
endheader
time	/jointset/ground_pelvis/pelvis_tilt/value	/jointset/ground_pelvis/pelvis_tx/value	/jointset/ground_pelvis/pelvis_ty/value	/jointset/hip_l/hip_flexion_l/value	/jointset/hip_l/hip_adduction_l/value	/jointset/hip_l/hip_rotation_l/value	/jointset/back/lumbar_extension/value	/jointset/patellofemoral_l/patellar_flexion_l/value	/jointset/knee_l/knee_flexion_l/value	/jointset/knee_l/knee_adduction_l/value	/jointset/knee_l/knee_rotation_l/value	/jointset/ankle_l/ankle_angle_l/value	/jointset/subtalar_l/subtalar_angle_l/value	/jointset/ground_pelvis/pelvis_tilt/speed	/jointset/ground_pelvis/pelvis_tx/speed	/jointset/ground_pelvis/pelvis_ty/speed	/jointset/hip_l/hip_flexion_l/speed	/jointset/hip_l/hip_adduction_l/speed	/jointset/hip_l/hip_rotation_l/speed	/jointset/back/lumbar_extension/speed	/jointset/patellofemoral_l/patellar_flexion_l/speed	/jointset/knee_l/knee_flexion_l/speed	/jointset/knee_l/knee_adduction_l/speed	/jointset/knee_l/knee_rotation_l/speed	/jointset/ankle_l/ankle_angle_l/speed	/jointset/subtalar_l/subtalar_angle_l/speed	/forceset/tau_hip_flexion_l	/forceset/tau_hip_adduction_l	/forceset/tau_hip_rotation_l	/forceset/tau_knee_flexion_l	/forceset/tau_ankle_angle_l	/forceset/tau_subtalar_angle_l	/forceset/tau_lumbar_extension	lambda_cid13_p0	lambda_cid13_p1	lambda_cid13_p2	lambda_cid13_p3	lambda_cid13_p4	lambda_cid13_p5	lambda_cid14_p0	/jointset/ground_pelvis/pelvis_tilt/accel	/jointset/ground_pelvis/pelvis_tx/accel	/jointset/ground_pelvis/pelvis_ty/accel	/jointset/hip_l/hip_flexion_l/accel	/jointset/hip_l/hip_adduction_l/accel	/jointset/hip_l/hip_rotation_l/accel	/jointset/back/lumbar_extension/accel	/jointset/patellofemoral_l/patellar_flexion_l/accel	/jointset/knee_l/knee_flexion_l/accel	/jointset/knee_l/knee_adduction_l/accel	/jointset/knee_l/knee_rotation_l/accel	/jointset/ankle_l/ankle_angle_l/accel	/jointset/subtalar_l/subtalar_angle_l/accel	gamma_cid13_p0	gamma_cid13_p1	gamma_cid13_p2	gamma_cid13_p3	gamma_cid13_p4	gamma_cid13_p5	gamma_cid14_p0
0	-0.03542259598081376	0.0560673564177412	0.92036636726777	0.3085811930696054	-0.2952419187502517	-0.2928297148250137	-0.3879500408040475	0.2499276582271435	0.249927658227084	-0.1745312170544161	-0.1659210276832707	-0.0008036543073733089	0.0007379103301325128	0	0	0	0	0	0	0	0	0	0	0	0	0	0.1176484489670118	-0.02512540679024495	-0.01637827533812062	-0.2219602096586364	0.1177630613462703	-0.03899497186022459	-0.06180659254611159	-4.045754332939181	14.67523671007943	0.5969842854159866	54.39931680606021	-563.0509526655359	-48.01598349731527	-22.90898824724691	-2.287551802641292	-4.033811778594027	-1.69871180169327	17.88330509575159	-0.8041969178601975	5.092202196339177	-11.42013740880245	16.92574270940746	16.92574270940663	3.667895677527964	-0.7021449579533825	2.523831395368749	-0.02368361041293572	8.222928859661913e-08	4.644147586147357e-07	1.120564788314315e-07	-1.086647757998901e-07	7.372593498521908e-07	4.215590436603216e-08	2.651104081345099e-08
0.01	-0.03552970993812513	0.05586975284775209	0.9202834631379301	0.3094522603849931	-0.2952822183074723	-0.2925748777709669	-0.3885151616470582	0.2507575902270876	0.2507575902264602	-0.1743536117211345	-0.1659508642361615	-0.0006789127524051794	0.0007361281556551072	-0.02129450600799506	-0.03913403789319734	-0.01650035504892729	0.1730217123260901	-0.007939983828347943	0.05065350048427034	-0.111765604553417	0.1650138859429964	0.1650138859430474	0.03542421839889079	-0.005883536739838568	0.02501618994126037	-0.0002054940122091728	0.1059715880583577	-0.03751955111672506	-0.01522402052181294	-0.2152577295687408	0.1097692490161875	-0.02126524770491273	-0.0498237831685034	-6.163174984095768	7.456624261976909	1.62142897744693	51.28052570448849	-569.260619824921	-62.08640513997513	-22.91933918646825	-2.031185349069064	-3.795220115488011	-1.613479266886413	16.83282810448245	-0.7710153542793609	5.004845447162983	-10.8659873690879	16.14332913994785	16.14332913995539	3.46525180727254	-0.5188893976114644	2.500714631166246	0.003570176168077237	1.048079557209651e-08	4.992536114659286e-07	2.628256003741658e-07	3.289203373823187e-10	3.472388148472096e-07	-6.856743168199801e-08	2.413660570478791e-08
0.02	-0.03584592602536833	0.05529240483466621	0.9200379990755222	0.3120177895844163	-0.2953983409507798	-0.2918229214175445	-0.3901601816137069	0.2532084846063375	0.2532084846063173	-0.173824650826307	-0.1660370224306786	-0.000301968930482421	0.0007368015356141421	-0.04182042598327384	-0.07594888861935364	-0.0325119865135775	0.3388923767900318	-0.01516461721494302	0.09942385987610806	-0.2159798247257045	0.3241924760140737	0.3241924760141656	0.0702711122458705	-0.01126432810409259	0.05044045338897554	0.0004911108872853946	0.09429472715024408	-0.04991369544335415	-0.01406976569866994	-0.2085552494796598	0.1017754366859949	-0.003535523549879211	-0.03784097379034178	-8.143638506553021	0.2179158469446573	2.644635307498367	48.02729816164338	-573.3704479692507	-75.99597294582475	-22.94941546757459	-2.133834596096588	-3.569974345187086	-1.600967084837896	16.4530955233221	-0.6611268295097215	4.715573977852632	-9.909860532575726	15.75868353502394	15.75868353502108	3.552430767145573	-0.6015958828367123	2.605446096658281	0.1567361719271613	-6.126769745242612e-08	5.340924643171216e-07	4.135947219169001e-07	1.093226164746548e-07	-4.278172015777154e-08	-1.792907677300282e-07	2.176217059612484e-08
0.03	-0.03636442431549104	0.05435759526746241	0.9196337948514015	0.3162097321269874	-0.2955834254582497	-0.2905930066307879	-0.3928134770958075	0.2572240220967991	0.2572240220968904	-0.1729507292836719	-0.1661751415520195	0.0003304689187102951	0.0007483701020735141	-0.06175944285210967	-0.1107166477698097	-0.04833991162331568	0.4985376983634581	-0.02179627423389251	0.1462815832867761	-0.3138999817250979	0.478117441305753	0.4781174413058648	0.1042761394753964	-0.01628757909978772	0.07603050473791978	0.001876982847422715	0.08732751590688771	-0.04497015603036713	-0.01365357752409533	-0.2067732894707662	0.1049496012916653	-0.006111049174389641	-0.03080572359570774	-7.147581346600326	1.153612165117649	2.50511604676465	44.97467172965393	-574.0069119167283	-72.86024837151278	-22.99721677616961	-1.905976712620033	-3.38569784107495	-1.575373353228867	15.57647250048128	-0.6559330122371955	4.629207511629556	-9.616199786069897	15.08976156473479	15.08976156473882	3.289115444955384	-0.4418486965020673	2.533307960714795	0.1375367018710742	-1.081900904089086e-07	3.328440512945842e-07	5.5067867237604e-07	1.35276565848581e-07	-2.289976884024677e-07	-3.164386730668212e-07	-1.273302557658818e-08
0.04	-0.03707872107038989	0.05308400388052827	0.9190709777503474	0.3219693722905062	-0.2958331761107676	-0.2889028474121659	-0.3964225954484089	0.262754880948124	0.2627548809481207	-0.1717438421200236	-0.1663613249806572	0.001218311942730359	0.0007754021868972731	-0.08098011893470047	-0.1437052525654211	-0.06423456190024629	0.6524319009817892	-0.02809784621895026	0.1914727462557195	-0.4071443988222582	0.6272567481372588	0.6272567481374048	0.1368642364689936	-0.02087718963817247	0.101521488354969	0.003583814560150387	0.08036030466398615	-0.04002661661700114	-0.01323738935175305	-0.204991329461034	0.1081237658977131	-0.008686574798351214	-0.0237704734011022	-6.032314947902552	2.074986112920785	2.360394080402596	41.78767941073662	-572.8340388403021	-69.56823099129733	-23.06031865428845	-1.990166438846235	-3.214143474219475	-1.61431211827641	15.30287173230324	-0.5951098227312521	4.382261889507623	-8.974712552128432	14.80155184298959	14.80155184298959	3.26904471996019	-0.5148677913747888	2.585632550277853	0.2209281224448462	-1.546006050134727e-07	1.267278595942379e-07	6.874804543592294e-07	1.595183554954279e-07	-4.110115006314879e-07	-4.541314148837949e-07	-4.789050548258059e-08
